<svg xmlns="http://www.w3.org/2000/svg" version="1.1" xmlns:xlink="http://www.w3.org/1999/xlink" xmlns:svgjs="http://svgjs.dev/svgjs" width="1000" height="1000" viewBox="0 0 1000 1000"><rect width="1000" height="1000" fill="#ffffff"></rect><g transform="matrix(0.7,0,0,0.7,150.0000000000001,106.25)"><svg viewBox="0 0 320 360" data-background-color="#003366" preserveAspectRatio="xMidYMid meet" height="1125" width="1000" xmlns="http://www.w3.org/2000/svg" xmlns:xlink="http://www.w3.org/1999/xlink"><g id="tight-bounds" transform="matrix(1,0,0,1,0,0)"><svg viewBox="0 0 320 360" height="360" width="320"><g><svg></svg></g><g><svg viewBox="0 0 320 360" height="360" width="320"><g><path xmlns="http://www.w3.org/2000/svg" d="M20.961 227.22l3.726 4.658-1.863-6.056c-0.466-2.795-3.726 0.466-1.863 1.398M25.153 224.425c1.397 2.329 2.795 4.658 2.795 6.987 0 3.261 2.795 4.658 5.123 5.589-3.261-3.726-5.124-13.974-7.918-12.576M204.017 26.929c7.918 0 15.371-0.932 23.756 0.931 20.495 5.124 37.729 15.371 49.374 29.811l32.606 52.169c1.397 13.042 4.192 27.482 3.726 43.319 3.261 0 2.795-4.658 6.521-5.59-3.726 9.316-5.59 20.961-6.521 34.469-2.329-7.453 0-18.632 0.466-24.687-3.261 5.124-5.124 1.397-5.124-0.932 0.466-3.726-1.397-3.261-2.795-4.658-5.124-4.658-8.384-9.782-12.11-17.7 2.329-6.055 2.795-14.905-4.658-19.563-2.329-1.397-5.124-3.726-6.521-7.453-1.863-5.124-5.124-11.179-4.193-19.097 0.466-2.329-6.987 5.124-11.179 1.863-18.166-12.576-36.332-27.016-58.224-39.127-11.645 0-20.029-4.192-24.221-9.316-3.726-4.658-0.932-10.713 4.658-11.179 3.261 0 6.987-0.932 9.782 0.932 0.466-1.863 2.329-4.192 4.657-4.192M157.904 16.215l0.932 0.466c4.658 0.932 6.987 7.453 12.11 5.124 0 3.261 0.466 6.521-0.466 8.85-1.397 3.726-5.59 3.726-8.85 3.726-31.208-1.863-49.374 11.179-68.471 22.358-5.124 3.261-10.713 5.59-14.906 9.782-20.029 18.632-41.921 35.866-47.045 70.335l-4.192 38.195c-0.466 4.192-5.124 8.384-4.192 13.508l3.26 22.824c-3.261-3.261-5.124 0.932-4.192 2.795 0.466 1.397 2.329 6.055 5.124 1.863 3.726 6.987 7.453 20.495 12.576 26.55 15.837 18.632 36.332 35.4 53.101 52.169 4.192-0.932 7.453-0.932 8.384-3.727 1.397 2.795-1.397 5.59-3.726 6.056 7.453 4.658 15.837 8.85 27.016 9.781 14.44 0.932 27.948 3.261 40.524 6.522 6.521-1.863 13.042-2.795 20.029-3.261 2.329 0 3.726-3.726 6.521-4.658l0.466-4.658c2.795 4.192 2.329-1.397 0.466-4.192 3.261 2.795 4.192 5.124 5.589 6.987 0-1.397 3.726-6.521 3.727-0.466l0.931-6.055c1.397-0.932 1.863 5.124 3.261 0.931 1.397-4.192 4.192-0.932 6.987-2.329-0.932 1.863-0.466 5.59 2.794 3.261l3.727-3.261c2.329 5.59 6.055 3.261 7.918 2.329 20.495-13.042 40.99-28.413 60.553-43.784l-0.466 6.055 2.329-7.453c2.329 2.329 4.192 0.466 5.124-0.931 2.795-4.658 6.521-9.316 12.577-13.508-7.453 20.029-16.303 35.866-27.482 48.908l-4.658 5.59c0 3.261-0.932 7.453-4.658 7.918-1.863 0.466-5.59-0.932-8.384 1.863-1.397 1.863 3.261 5.59-0.466 2.795-3.261-2.329-6.521 0-10.248 0.932-2.795 0.932 1.863 3.726 2.795 5.589 0.932 1.863 1.863 3.726 1.398 6.056l-5.124-5.59c-6.055 3.261-9.782 9.316-14.906 13.974-2.329 1.863-1.397 5.124-1.397 7.918-3.261 0-6.987-0.932-8.85 0.932-1.397 1.863-0.932 4.658-0.932 7.453-4.658-0.466-5.124-7.453-9.315-6.056-4.192 0.932-8.85 1.397-12.577 3.727 2.795 5.59-4.658 2.329-3.726 3.26-6.987-4.192-13.042-7.453-20.495-4.658-15.837-5.124-35.4-2.795-49.84-0.931 0-2.329 0.466-4.658-0.466-5.124-0.932 2.329-3.726 1.397-3.26 1.397-8.85-6.055-17.7-9.782-27.016-14.905-8.384 0.932-16.303-3.261-18.632-5.59-6.521-6.055-13.974-2.795-20.029-4.192-13.042-3.261-17.7-16.769-19.098-26.084-0.932-4.658-4.658-6.521-6.055-6.056-6.055-19.563-15.371-37.263-22.824-55.429-1.863-4.658-1.397-9.316-1.397-14.44 2.329 0.932 4.658 0.466 4.192-2.794-2.329-15.371-7.918-27.016-13.974-38.195 3.261-15.837 3.726-34.469 11.179-48.443 6.521-12.576 18.632-19.098 27.016-29.811 2.795-3.726 2.795-8.85 5.59-12.11 9.316-9.316 18.632-19.098 28.879-27.482 4.658-3.726 10.247 0 17.234-1.397 2.329-8.384 11.645-15.837 20.495-13.508 3.726 0.932 11.179-8.85 13.508-9.782 3.726-1.397 1.863 3.726 1.863 6.987 8.85-6.987 20.961-10.713 32.14-14.906" fill="#ffffff" fill-rule="nonzero" stroke="none" stroke-width="1" stroke-linecap="butt" stroke-linejoin="miter" stroke-miterlimit="10" stroke-dasharray="" stroke-dashoffset="0" font-family="none" font-weight="none" font-size="none" text-anchor="none" style="mix-blend-mode: normal" data-fill-palette-color="tertiary"></path></g><g transform="matrix(1,0,0,1,64,112.8576413620701)"><svg viewBox="0 0 192 134.2847172758598" height="134.2847172758598" width="192"><g><svg viewBox="0 0 192 134.2847172758598" height="134.2847172758598" width="192"><g><svg viewBox="0 0 192 134.2847172758598" height="134.2847172758598" width="192"><g transform="matrix(1,0,0,1,0,80.22985056369575)"><svg viewBox="0 0 192 54.05486671216404" height="54.05486671216404" width="192"><g><svg viewBox="0 0 192 54.05486671216404" height="54.05486671216404" width="192"><g><svg viewBox="0 0 192 37.86919744171653" height="37.86919744171653" width="192"><g transform="matrix(1,0,0,1,0,0)"><svg width="192" viewBox="2.75 -37.20000076293945 242.3300018310547 47.80000305175781" height="37.86919744171653" data-palette-color="#ffffff"><path d="M26.75 0L26.75-5.3 26.55-5.3Q26-2.75 23.58-1.07 21.15 0.6 17.15 0.6L17.15 0.6Q14.05 0.6 11.4-0.58 8.75-1.75 6.83-4.03 4.9-6.3 3.83-9.68 2.75-13.05 2.75-17.45L2.75-17.45Q2.75-21.8 3.85-25.18 4.95-28.55 6.95-30.85 8.95-33.15 11.75-34.33 14.55-35.5 18-35.5L18-35.5Q22.7-35.5 25.95-33.43 29.2-31.35 31-27.65L31-27.65 26.4-24.95Q25.4-27.4 23.3-28.93 21.2-30.45 18-30.45L18-30.45Q13.85-30.45 11.33-27.8 8.8-25.15 8.8-20.3L8.8-20.3 8.8-14.6Q8.8-9.75 11.33-7.1 13.85-4.45 18-4.45L18-4.45Q19.65-4.45 21.15-4.88 22.65-5.3 23.78-6.13 24.9-6.95 25.58-8.18 26.25-9.4 26.25-11.05L26.25-11.05 26.25-13.75 19.05-13.75 19.05-18.6 31.7-18.6 31.7 0 26.75 0ZM54.9 0L54.9-4.3 54.7-4.3Q54.35-3.35 53.77-2.45 53.2-1.55 52.32-0.88 51.45-0.2 50.22 0.2 49 0.6 47.4 0.6L47.4 0.6Q43.35 0.6 41.12-2 38.9-4.6 38.9-9.45L38.9-9.45 38.9-26 44.35-26 44.35-10.15Q44.35-4.1 49.35-4.1L49.35-4.1Q50.4-4.1 51.4-4.38 52.4-4.65 53.17-5.2 53.95-5.75 54.42-6.6 54.9-7.45 54.9-8.6L54.9-8.6 54.9-26 60.35-26 60.35 0 54.9 0ZM70.9-30.65L70.9-30.65Q69.2-30.65 68.42-31.45 67.65-32.25 67.65-33.5L67.65-33.5 67.65-34.35Q67.65-35.6 68.42-36.4 69.2-37.2 70.9-37.2L70.9-37.2Q72.59-37.2 73.34-36.4 74.09-35.6 74.09-34.35L74.09-34.35 74.09-33.5Q74.09-32.25 73.34-31.45 72.59-30.65 70.9-30.65ZM68.15 0L68.15-26 73.59-26 73.59 0 68.15 0ZM104.19 2.45L104.19 2.45Q104.19 6.5 101.09 8.55 97.99 10.6 90.99 10.6L90.99 10.6Q87.79 10.6 85.57 10.18 83.34 9.75 81.92 8.95 80.49 8.15 79.84 7 79.19 5.85 79.19 4.35L79.19 4.35Q79.19 2.2 80.37 1 81.54-0.2 83.64-0.65L83.64-0.65 83.64-1.2Q80.69-2.15 80.69-5.2L80.69-5.2Q80.69-7.2 82.04-8.28 83.39-9.35 85.29-9.8L85.29-9.8 85.29-10Q82.99-11.1 81.77-13.08 80.54-15.05 80.54-17.7L80.54-17.7Q80.54-21.7 83.22-24.15 85.89-26.6 90.89-26.6L90.89-26.6Q93.64-26.6 95.59-25.8L95.59-25.8 95.59-26.5Q95.59-28.25 96.42-29.23 97.24-30.2 98.99-30.2L98.99-30.2 102.99-30.2 102.99-25.8 97.69-25.8 97.69-24.75Q99.44-23.6 100.39-21.78 101.34-19.95 101.34-17.7L101.34-17.7Q101.34-13.75 98.64-11.33 95.94-8.9 90.94-8.9L90.94-8.9Q89.04-8.9 87.54-9.3L87.54-9.3Q86.54-8.95 85.79-8.33 85.04-7.7 85.04-6.7L85.04-6.7Q85.04-5.65 85.99-5.2 86.94-4.75 88.69-4.75L88.69-4.75 95.09-4.75Q99.89-4.75 102.04-2.83 104.19-0.9 104.19 2.45ZM99.09 3.05L99.09 3.05Q99.09 1.7 98.07 0.9 97.04 0.1 94.34 0.1L94.34 0.1 85.54 0.1Q83.74 1.15 83.74 3.1L83.74 3.1Q83.74 4.7 85.02 5.68 86.29 6.65 89.34 6.65L89.34 6.65 92.74 6.65Q99.09 6.65 99.09 3.05ZM90.94-12.85L90.94-12.85Q93.34-12.85 94.67-13.93 95.99-15 95.99-17.25L95.99-17.25 95.99-18.25Q95.99-20.5 94.67-21.58 93.34-22.65 90.94-22.65L90.94-22.65Q88.54-22.65 87.22-21.58 85.89-20.5 85.89-18.25L85.89-18.25 85.89-17.25Q85.89-15 87.22-13.93 88.54-12.85 90.94-12.85ZM116.49 0.6L116.49 0.6Q112.79 0.6 110.29-0.7 107.79-2 105.94-4.3L105.94-4.3 109.44-7.5Q110.89-5.75 112.67-4.78 114.44-3.8 116.79-3.8L116.79-3.8Q119.19-3.8 120.37-4.73 121.54-5.65 121.54-7.3L121.54-7.3Q121.54-8.55 120.72-9.43 119.89-10.3 117.84-10.55L117.84-10.55 115.44-10.85Q111.44-11.35 109.17-13.18 106.89-15 106.89-18.6L106.89-18.6Q106.89-20.5 107.59-21.98 108.29-23.45 109.56-24.48 110.84-25.5 112.62-26.05 114.39-26.6 116.54-26.6L116.54-26.6Q120.04-26.6 122.27-25.5 124.49-24.4 126.24-22.45L126.24-22.45 122.89-19.25Q121.89-20.45 120.27-21.33 118.64-22.2 116.54-22.2L116.54-22.2Q114.29-22.2 113.22-21.3 112.14-20.4 112.14-18.95L112.14-18.95Q112.14-17.45 113.09-16.7 114.04-15.95 116.14-15.6L116.14-15.6 118.54-15.3Q122.84-14.65 124.81-12.78 126.79-10.9 126.79-7.75L126.79-7.75Q126.79-5.85 126.06-4.33 125.34-2.8 123.99-1.7 122.64-0.6 120.74 0 118.84 0.6 116.49 0.6ZM168.49-29.9L158.09-29.9 158.09 0 152.44 0 152.44-29.9 142.04-29.9 142.04-34.9 168.49-34.9 168.49-29.9ZM180.53 0.6L180.53 0.6Q177.73 0.6 175.53-0.35 173.33-1.3 171.78-3.08 170.23-4.85 169.41-7.38 168.58-9.9 168.58-13L168.58-13Q168.58-16.1 169.41-18.63 170.23-21.15 171.78-22.93 173.33-24.7 175.53-25.65 177.73-26.6 180.53-26.6L180.53-26.6Q183.38-26.6 185.56-25.6 187.73-24.6 189.18-22.83 190.63-21.05 191.36-18.7 192.08-16.35 192.08-13.65L192.08-13.65 192.08-11.6 174.23-11.6 174.23-10.75Q174.23-7.75 176.01-5.83 177.78-3.9 181.08-3.9L181.08-3.9Q183.48-3.9 185.13-4.95 186.78-6 187.93-7.8L187.93-7.8 191.13-4.65Q189.68-2.25 186.93-0.83 184.18 0.6 180.53 0.6ZM180.53-22.35L180.53-22.35Q179.13-22.35 177.96-21.85 176.78-21.35 175.96-20.45 175.13-19.55 174.68-18.3 174.23-17.05 174.23-15.55L174.23-15.55 174.23-15.2 186.33-15.2 186.33-15.7Q186.33-18.7 184.78-20.53 183.23-22.35 180.53-22.35ZM208.18 0.6L208.18 0.6Q205.38 0.6 203.18-0.35 200.98-1.3 199.48-3.08 197.98-4.85 197.18-7.38 196.38-9.9 196.38-13L196.38-13Q196.38-16.1 197.18-18.63 197.98-21.15 199.48-22.93 200.98-24.7 203.18-25.65 205.38-26.6 208.18-26.6L208.18-26.6Q212.08-26.6 214.58-24.85 217.08-23.1 218.23-20.2L218.23-20.2 213.73-18.1Q213.18-19.9 211.81-20.98 210.43-22.05 208.18-22.05L208.18-22.05Q205.18-22.05 203.66-20.18 202.13-18.3 202.13-15.3L202.13-15.3 202.13-10.65Q202.13-7.65 203.66-5.78 205.18-3.9 208.18-3.9L208.18-3.9Q210.58-3.9 212.01-5.08 213.43-6.25 214.28-8.2L214.28-8.2 218.43-6Q217.13-2.8 214.53-1.1 211.93 0.6 208.18 0.6ZM223.63 0L223.63-37 229.08-37 229.08-21.7 229.33-21.7Q230.18-23.8 231.9-25.2 233.63-26.6 236.63-26.6L236.63-26.6Q240.63-26.6 242.85-23.98 245.08-21.35 245.08-16.5L245.08-16.5 245.08 0 239.63 0 239.63-15.85Q239.63-21.9 234.73-21.9L234.73-21.9Q233.68-21.9 232.65-21.63 231.63-21.35 230.83-20.8 230.03-20.25 229.55-19.4 229.08-18.55 229.08-17.45L229.08-17.45 229.08 0 223.63 0Z" opacity="1" transform="matrix(1,0,0,1,0,0)" fill="#000000" class="undefined-text-0" data-fill-palette-color="primary" id="text-0"></path></svg></g></svg></g><g transform="matrix(1,0,0,1,0,43.39522220920157)"><svg viewBox="0 0 192 10.659644502962474" height="10.659644502962474" width="192"><g transform="matrix(1,0,0,1,0,0)"><svg width="192" viewBox="1.100000023841858 -37.150001525878906 685.3200073242188 37.95000076293945" height="10.659644502962474" data-palette-color="#ff9966"><path d="M30.55-5.15L37.9-34.1 41.45-34.1 32.35 0 28.45 0 21.35-27.4 14.05 0 10.2 0 1.1-34.1 4.95-34.1 12.25-5.4 19.85-34.1 22.9-34.1 30.55-5.15ZM53.8-24.2Q56.95-24.2 59.5-22.65 62.05-21.1 63.5-18.43 64.95-15.75 64.95-12.45L64.95-12.45Q64.95-11.5 64.9-11L64.9-11 45.65-11Q45.85-7.4 48-4.85 50.15-2.3 53.85-2.3L53.85-2.3Q56.85-2.3 58.82-3.43 60.8-4.55 62-6.55L62-6.55 64.7-4.75Q63.05-2.15 60.35-0.68 57.65 0.8 53.95 0.8L53.95 0.8Q50.55 0.8 47.9-0.8 45.25-2.4 43.75-5.25 42.25-8.1 42.25-11.7L42.25-11.7Q42.25-15.3 43.72-18.15 45.2-21 47.82-22.6 50.45-24.2 53.8-24.2L53.8-24.2ZM45.85-13.8L61.55-13.8Q61.05-17.45 59.1-19.28 57.15-21.1 53.8-21.1L53.8-21.1Q50.55-21.1 48.47-19.03 46.4-16.95 45.85-13.8L45.85-13.8ZM91.24 0.8Q87.84 0.8 85.19-0.8 82.54-2.4 81.04-5.25 79.54-8.1 79.54-11.7L79.54-11.7Q79.54-15.3 81.02-18.15 82.49-21 85.14-22.6 87.79-24.2 91.14-24.2L91.14-24.2Q93.99-24.2 96.12-22.98 98.24-21.75 99.99-19.5L99.99-19.5 97.49-17.55Q95.04-21.1 91.14-21.1L91.14-21.1Q88.79-21.1 86.92-19.9 85.04-18.7 83.99-16.55 82.94-14.4 82.94-11.7L82.94-11.7Q82.94-9 83.99-6.85 85.04-4.7 86.92-3.5 88.79-2.3 91.14-2.3L91.14-2.3Q93.54-2.3 95.09-3.13 96.64-3.95 97.89-5.55L97.89-5.55 100.54-3.7Q98.89-1.65 96.47-0.43 94.04 0.8 91.24 0.8L91.24 0.8ZM115.14 0.8Q111.79 0.8 109.14-0.8 106.49-2.4 104.99-5.28 103.49-8.15 103.49-11.75L103.49-11.75Q103.49-15.35 104.97-18.18 106.44-21 109.07-22.6 111.69-24.2 115.04-24.2L115.04-24.2Q118.39-24.2 121.04-22.6 123.69-21 125.19-18.15 126.69-15.3 126.69-11.7L126.69-11.7Q126.69-8.1 125.22-5.25 123.74-2.4 121.12-0.8 118.49 0.8 115.14 0.8L115.14 0.8ZM115.04-2.3Q117.44-2.3 119.32-3.5 121.19-4.7 122.24-6.85 123.29-9 123.29-11.7L123.29-11.7Q123.29-14.4 122.24-16.55 121.19-18.7 119.32-19.9 117.44-21.1 115.04-21.1L115.04-21.1Q112.69-21.1 110.84-19.9 108.99-18.7 107.94-16.57 106.89-14.45 106.89-11.75L106.89-11.75Q106.89-9 107.94-6.85 108.99-4.7 110.84-3.5 112.69-2.3 115.04-2.3L115.04-2.3ZM149.84-36.3L153.24-36.3 153.24 0 149.84 0 149.84-3.45Q148.39-1.45 146.29-0.33 144.19 0.8 141.69 0.8L141.69 0.8Q138.34 0.8 135.69-0.8 133.04-2.4 131.54-5.25 130.04-8.1 130.04-11.75L130.04-11.75Q130.04-15.35 131.51-18.18 132.99-21 135.61-22.6 138.24-24.2 141.59-24.2L141.59-24.2Q144.14-24.2 146.26-23.08 148.39-21.95 149.84-19.9L149.84-19.9 149.84-36.3ZM141.59-2.3Q143.99-2.3 145.86-3.5 147.74-4.7 148.79-6.85 149.84-9 149.84-11.7L149.84-11.7Q149.84-14.4 148.79-16.55 147.74-18.7 145.86-19.9 143.99-21.1 141.59-21.1L141.59-21.1Q139.24-21.1 137.39-19.9 135.54-18.7 134.49-16.57 133.44-14.45 133.44-11.75L133.44-11.75Q133.44-9 134.49-6.85 135.54-4.7 137.39-3.5 139.24-2.3 141.59-2.3L141.59-2.3ZM169.64-24.2Q172.79-24.2 175.34-22.65 177.89-21.1 179.34-18.43 180.79-15.75 180.79-12.45L180.79-12.45Q180.79-11.5 180.74-11L180.74-11 161.49-11Q161.69-7.4 163.84-4.85 165.99-2.3 169.69-2.3L169.69-2.3Q172.69-2.3 174.66-3.43 176.64-4.55 177.84-6.55L177.84-6.55 180.54-4.75Q178.89-2.15 176.19-0.68 173.49 0.8 169.79 0.8L169.79 0.8Q166.39 0.8 163.74-0.8 161.09-2.4 159.59-5.25 158.09-8.1 158.09-11.7L158.09-11.7Q158.09-15.3 159.56-18.15 161.04-21 163.66-22.6 166.29-24.2 169.64-24.2L169.64-24.2ZM161.69-13.8L177.39-13.8Q176.89-17.45 174.94-19.28 172.99-21.1 169.64-21.1L169.64-21.1Q166.39-21.1 164.31-19.03 162.24-16.95 161.69-13.8L161.69-13.8ZM201.58 0L198.18 0 198.18-20.3 194.18-20.3 194.18-23.4 198.18-23.4 198.18-31.15 201.58-31.15 201.58-23.4 206.98-23.4 206.98-20.3 201.58-20.3 201.58 0ZM221.83-24.2Q224.28-24.2 226.35-23.2 228.43-22.2 229.65-20.25 230.88-18.3 230.88-15.65L230.88-15.65 230.88 0 227.48 0 227.48-14.15Q227.48-21.1 221.28-21.1L221.28-21.1Q217.68-21.1 215.88-18.55 214.08-16 214.08-11.7L214.08-11.7 214.08 0 210.68 0 210.68-36.3 214.08-36.3 214.08-19.5Q215.28-21.75 217.25-22.98 219.23-24.2 221.83-24.2L221.83-24.2ZM247.48-24.2Q250.63-24.2 253.18-22.65 255.73-21.1 257.18-18.43 258.63-15.75 258.63-12.45L258.63-12.45Q258.63-11.5 258.58-11L258.58-11 239.33-11Q239.53-7.4 241.68-4.85 243.83-2.3 247.53-2.3L247.53-2.3Q250.53-2.3 252.5-3.43 254.48-4.55 255.68-6.55L255.68-6.55 258.38-4.75Q256.73-2.15 254.03-0.68 251.33 0.8 247.63 0.8L247.63 0.8Q244.23 0.8 241.58-0.8 238.93-2.4 237.43-5.25 235.93-8.1 235.93-11.7L235.93-11.7Q235.93-15.3 237.4-18.15 238.88-21 241.5-22.6 244.13-24.2 247.48-24.2L247.48-24.2ZM239.53-13.8L255.23-13.8Q254.73-17.45 252.78-19.28 250.83-21.1 247.48-21.1L247.48-21.1Q244.23-21.1 242.15-19.03 240.08-16.95 239.53-13.8L239.53-13.8ZM286.47-24.2Q289.82-24.2 292.45-22.6 295.07-21 296.55-18.18 298.02-15.35 298.02-11.75L298.02-11.75Q298.02-8.1 296.52-5.25 295.02-2.4 292.37-0.8 289.72 0.8 286.37 0.8L286.37 0.8Q283.87 0.8 281.77-0.33 279.67-1.45 278.22-3.45L278.22-3.45 278.22 0 274.82 0 274.82-36.3 278.22-36.3 278.22-19.9Q279.67-21.95 281.8-23.08 283.92-24.2 286.47-24.2L286.47-24.2ZM286.47-2.3Q288.82-2.3 290.67-3.5 292.52-4.7 293.57-6.85 294.62-9 294.62-11.75L294.62-11.75Q294.62-14.45 293.57-16.57 292.52-18.7 290.67-19.9 288.82-21.1 286.47-21.1L286.47-21.1Q284.07-21.1 282.2-19.9 280.32-18.7 279.27-16.55 278.22-14.4 278.22-11.7L278.22-11.7Q278.22-9 279.27-6.85 280.32-4.7 282.2-3.5 284.07-2.3 286.47-2.3L286.47-2.3ZM312.92-24.2Q316.07-24.2 318.62-22.65 321.17-21.1 322.62-18.43 324.07-15.75 324.07-12.45L324.07-12.45Q324.07-11.5 324.02-11L324.02-11 304.77-11Q304.97-7.4 307.12-4.85 309.27-2.3 312.97-2.3L312.97-2.3Q315.97-2.3 317.94-3.43 319.92-4.55 321.12-6.55L321.12-6.55 323.82-4.75Q322.17-2.15 319.47-0.68 316.77 0.8 313.07 0.8L313.07 0.8Q309.67 0.8 307.02-0.8 304.37-2.4 302.87-5.25 301.37-8.1 301.37-11.7L301.37-11.7Q301.37-15.3 302.84-18.15 304.32-21 306.94-22.6 309.57-24.2 312.92-24.2L312.92-24.2ZM304.97-13.8L320.67-13.8Q320.17-17.45 318.22-19.28 316.27-21.1 312.92-21.1L312.92-21.1Q309.67-21.1 307.59-19.03 305.52-16.95 304.97-13.8L304.97-13.8ZM337.32 0.8Q333.92 0.8 331.34-0.65 328.77-2.1 327.42-4.75L327.42-4.75 330.47-6.25Q332.32-2.3 337.72-2.3L337.72-2.3Q340.32-2.3 342.02-3.25 343.72-4.2 343.72-6.2L343.72-6.2Q343.72-8.25 342.34-9.25 340.97-10.25 337.52-10.55L337.52-10.55Q332.72-10.95 330.64-12.7 328.57-14.45 328.57-17.35L328.57-17.35Q328.57-20.6 330.92-22.4 333.27-24.2 337.37-24.2L337.37-24.2Q344.32-24.2 346.82-18.7L346.82-18.7 343.77-17.2Q342.92-19.2 341.29-20.15 339.67-21.1 337.12-21.1L337.12-21.1Q334.52-21.1 333.14-20.15 331.77-19.2 331.77-17.45L331.77-17.45Q331.77-15.8 333.24-14.78 334.72-13.75 338.32-13.45L338.32-13.45Q342.77-13.05 344.94-11.28 347.12-9.5 347.12-6.6L347.12-6.6Q347.12-4.25 345.77-2.58 344.42-0.9 342.17-0.05 339.92 0.8 337.32 0.8L337.32 0.8ZM356.91 0L353.51 0 353.51-20.3 349.51-20.3 349.51-23.4 353.51-23.4 353.51-31.15 356.91-31.15 356.91-23.4 362.31-23.4 362.31-20.3 356.91-20.3 356.91 0ZM395.51-23.4L398.91-23.4 398.91 0 395.51 0 395.51-3.45Q394.06-1.45 391.96-0.33 389.86 0.8 387.36 0.8L387.36 0.8Q384.01 0.8 381.36-0.8 378.71-2.4 377.21-5.25 375.71-8.1 375.71-11.75L375.71-11.75Q375.71-15.35 377.18-18.18 378.66-21 381.28-22.6 383.91-24.2 387.26-24.2L387.26-24.2Q389.81-24.2 391.93-23.08 394.06-21.95 395.51-19.9L395.51-19.9 395.51-23.4ZM387.26-2.3Q389.66-2.3 391.53-3.5 393.41-4.7 394.46-6.85 395.51-9 395.51-11.7L395.51-11.7Q395.51-14.4 394.46-16.55 393.41-18.7 391.53-19.9 389.66-21.1 387.26-21.1L387.26-21.1Q384.91-21.1 383.06-19.9 381.21-18.7 380.16-16.57 379.11-14.45 379.11-11.75L379.11-11.75Q379.11-9 380.16-6.85 381.21-4.7 383.06-3.5 384.91-2.3 387.26-2.3L387.26-2.3ZM416.36-24.2Q418.81-24.2 420.88-23.2 422.96-22.2 424.18-20.25 425.41-18.3 425.41-15.65L425.41-15.65 425.41 0 422.01 0 422.01-14.15Q422.01-21.1 415.81-21.1L415.81-21.1Q412.21-21.1 410.41-18.55 408.61-16 408.61-11.7L408.61-11.7 408.61 0 405.21 0 405.21-23.4 408.61-23.4 408.61-19.5Q409.81-21.75 411.78-22.98 413.76-24.2 416.36-24.2L416.36-24.2ZM450.4-36.3L453.8-36.3 453.8 0 450.4 0 450.4-3.45Q448.95-1.45 446.85-0.33 444.75 0.8 442.25 0.8L442.25 0.8Q438.9 0.8 436.25-0.8 433.6-2.4 432.1-5.25 430.6-8.1 430.6-11.75L430.6-11.75Q430.6-15.35 432.08-18.18 433.55-21 436.18-22.6 438.8-24.2 442.15-24.2L442.15-24.2Q444.7-24.2 446.83-23.08 448.95-21.95 450.4-19.9L450.4-19.9 450.4-36.3ZM442.15-2.3Q444.55-2.3 446.43-3.5 448.3-4.7 449.35-6.85 450.4-9 450.4-11.7L450.4-11.7Q450.4-14.4 449.35-16.55 448.3-18.7 446.43-19.9 444.55-21.1 442.15-21.1L442.15-21.1Q439.8-21.1 437.95-19.9 436.1-18.7 435.05-16.57 434-14.45 434-11.75L434-11.75Q434-9 435.05-6.85 436.1-4.7 437.95-3.5 439.8-2.3 442.15-2.3L442.15-2.3ZM479.9-34.05Q478.15-34.05 477.02-32.85 475.9-31.65 475.9-29.75L475.9-29.75 475.9-23.4 481.3-23.4 481.3-20.3 475.9-20.3 475.9 0 472.5 0 472.5-20.3 469.5-20.3 469.5-23.4 472.5-23.4 472.5-29.75Q472.5-33 474.57-35.08 476.65-37.15 479.9-37.15L479.9-37.15 481.3-37.15 481.3-34.05 479.9-34.05ZM490.25 0L486.85 0 486.85-23.4 490.25-23.4 490.25 0ZM488.55-27.95Q487.4-27.95 486.62-28.75 485.85-29.55 485.85-30.7L485.85-30.7Q485.85-31.8 486.62-32.58 487.4-33.35 488.55-33.35L488.55-33.35Q489.65-33.35 490.45-32.58 491.25-31.8 491.25-30.65L491.25-30.65Q491.25-29.55 490.45-28.75 489.65-27.95 488.55-27.95L488.55-27.95ZM509.14-12.05L516.74 0 512.84 0 506.74-9.75 500.64 0 496.84 0 504.34-12 497.29-23.4 501.14-23.4 506.79-14.2 512.74-23.4 516.49-23.4 509.14-12.05ZM537.29 0L533.89 0 533.89-20.3 529.89-20.3 529.89-23.4 533.89-23.4 533.89-31.15 537.29-31.15 537.29-23.4 542.69-23.4 542.69-20.3 537.29-20.3 537.29 0ZM557.53-24.2Q559.98-24.2 562.06-23.2 564.13-22.2 565.36-20.25 566.58-18.3 566.58-15.65L566.58-15.65 566.58 0 563.18 0 563.18-14.15Q563.18-21.1 556.98-21.1L556.98-21.1Q553.38-21.1 551.58-18.55 549.78-16 549.78-11.7L549.78-11.7 549.78 0 546.38 0 546.38-36.3 549.78-36.3 549.78-19.5Q550.98-21.75 552.96-22.98 554.93-24.2 557.53-24.2L557.53-24.2ZM583.18-24.2Q586.33-24.2 588.88-22.65 591.43-21.1 592.88-18.43 594.33-15.75 594.33-12.45L594.33-12.45Q594.33-11.5 594.28-11L594.28-11 575.03-11Q575.23-7.4 577.38-4.85 579.53-2.3 583.23-2.3L583.23-2.3Q586.23-2.3 588.21-3.43 590.18-4.55 591.38-6.55L591.38-6.55 594.08-4.75Q592.43-2.15 589.73-0.68 587.03 0.8 583.33 0.8L583.33 0.8Q579.93 0.8 577.28-0.8 574.63-2.4 573.13-5.25 571.63-8.1 571.63-11.7L571.63-11.7Q571.63-15.3 573.11-18.15 574.58-21 577.21-22.6 579.83-24.2 583.18-24.2L583.18-24.2ZM575.23-13.8L590.93-13.8Q590.43-17.45 588.48-19.28 586.53-21.1 583.18-21.1L583.18-21.1Q579.93-21.1 577.86-19.03 575.78-16.95 575.23-13.8L575.23-13.8ZM621.98-24.2Q623.18-24.2 624.28-23.85L624.28-23.85 624.28-20.75Q623.23-21.25 621.98-21.25L621.98-21.25Q619.83-21.25 617.98-20.05 616.13-18.85 615-16.57 613.88-14.3 613.88-11.2L613.88-11.2 613.88 0 610.48 0 610.48-23.4 613.88-23.4 613.88-18.7Q615.23-21.3 617.3-22.75 619.38-24.2 621.98-24.2L621.98-24.2ZM637.02-24.2Q640.17-24.2 642.72-22.65 645.27-21.1 646.72-18.43 648.17-15.75 648.17-12.45L648.17-12.45Q648.17-11.5 648.12-11L648.12-11 628.87-11Q629.07-7.4 631.22-4.85 633.37-2.3 637.07-2.3L637.07-2.3Q640.07-2.3 642.05-3.43 644.02-4.55 645.22-6.55L645.22-6.55 647.92-4.75Q646.27-2.15 643.57-0.68 640.87 0.8 637.17 0.8L637.17 0.8Q633.77 0.8 631.12-0.8 628.47-2.4 626.97-5.25 625.47-8.1 625.47-11.7L625.47-11.7Q625.47-15.3 626.95-18.15 628.42-21 631.05-22.6 633.67-24.2 637.02-24.2L637.02-24.2ZM629.07-13.8L644.77-13.8Q644.27-17.45 642.32-19.28 640.37-21.1 637.02-21.1L637.02-21.1Q633.77-21.1 631.7-19.03 629.62-16.95 629.07-13.8L629.07-13.8ZM661.42 0.8Q658.02 0.8 655.45-0.65 652.87-2.1 651.52-4.75L651.52-4.75 654.57-6.25Q656.42-2.3 661.82-2.3L661.82-2.3Q664.42-2.3 666.12-3.25 667.82-4.2 667.82-6.2L667.82-6.2Q667.82-8.25 666.45-9.25 665.07-10.25 661.62-10.55L661.62-10.55Q656.82-10.95 654.75-12.7 652.67-14.45 652.67-17.35L652.67-17.35Q652.67-20.6 655.02-22.4 657.37-24.2 661.47-24.2L661.47-24.2Q668.42-24.2 670.92-18.7L670.92-18.7 667.87-17.2Q667.02-19.2 665.4-20.15 663.77-21.1 661.22-21.1L661.22-21.1Q658.62-21.1 657.25-20.15 655.87-19.2 655.87-17.45L655.87-17.45Q655.87-15.8 657.35-14.78 658.82-13.75 662.42-13.45L662.42-13.45Q666.87-13.05 669.05-11.28 671.22-9.5 671.22-6.6L671.22-6.6Q671.22-4.25 669.87-2.58 668.52-0.9 666.27-0.05 664.02 0.8 661.42 0.8L661.42 0.8ZM681.02 0L677.62 0 677.62-20.3 673.62-20.3 673.62-23.4 677.62-23.4 677.62-31.15 681.02-31.15 681.02-23.4 686.42-23.4 686.42-20.3 681.02-20.3 681.02 0Z" opacity="1" transform="matrix(1,0,0,1,0,0)" fill="#000000" class="undefined-text-1" data-fill-palette-color="secondary" id="text-1"></path></svg></g></svg></g></svg></g></svg></g><g transform="matrix(1,0,0,1,58.648087101894646,0)"><svg viewBox="0 0 74.70382579621071 74.70382579621071" height="74.70382579621071" width="74.70382579621071"><g><svg version="1.1" xmlns:dc="http://purl.org/dc/elements/1.1/" xmlns:inkscape="http://www.inkscape.org/namespaces/inkscape" xmlns:rdf="http://www.w3.org/1999/02/22-rdf-syntax-ns#" xmlns:cc="http://creativecommons.org/ns#" xmlns:svg="http://www.w3.org/2000/svg" xmlns:sodipodi="http://sodipodi.sourceforge.net/DTD/sodipodi-0.dtd" xmlns="http://www.w3.org/2000/svg" xmlns:xlink="http://www.w3.org/1999/xlink" x="0" y="0" viewBox="0 0 100 100" enable-background="new 0 0 100 100" xml:space="preserve" height="74.70382579621071" width="74.70382579621071" class="icon-icon-0" data-fill-palette-color="accent" id="icon-0"><path d="M50 0C22.386 0 0 22.386 0 50s22.386 50 50 50 50-22.386 50-50S77.614 0 50 0zM50 14.156c19.799 0 35.844 16.044 35.844 35.844 0 19.799-16.045 35.844-35.844 35.844-19.799 0-35.844-16.045-35.844-35.844C14.156 30.201 30.201 14.156 50 14.156zM50 20.125c-16.505 0-29.875 13.37-29.875 29.875S33.495 79.875 50 79.875 79.875 66.505 79.875 50 66.505 20.125 50 20.125zM50 29.75c11.178 0 20.25 9.072 20.25 20.25S61.178 70.25 50 70.25 29.75 61.178 29.75 50 38.822 29.75 50 29.75z" fill="#000000" data-fill-palette-color="accent"></path></svg></g></svg></g><g></g></svg></g></svg></g></svg></g></svg></g><defs></defs></svg><rect width="320" height="360" fill="none" stroke="none" visibility="hidden"></rect></g></svg></g></svg>